<svg id="Layer_1" data-name="Layer 1" xmlns="http://www.w3.org/2000/svg" xmlns:xlink="http://www.w3.org/1999/xlink" viewBox="0 0 140 69"><defs><style>.cls-1,.cls-2,.cls-3{fill:none;}.cls-1{clip-rule:evenodd;}.cls-3{fill-rule:evenodd;}.cls-4{clip-path:url(#clip-path);}.cls-5{clip-path:url(#clip-path-2);}.cls-6{fill:#231f20;}.cls-7{clip-path:url(#clip-path-3);}.cls-8{isolation:isolate;}.cls-9{clip-path:url(#clip-path-5);}.cls-10{clip-path:url(#clip-path-6);}.cls-11{clip-path:url(#clip-path-8);}.cls-12{clip-path:url(#clip-path-10);}.cls-13{clip-path:url(#clip-path-12);}.cls-14{clip-path:url(#clip-path-13);}.cls-15{clip-path:url(#clip-path-14);}.cls-16{clip-path:url(#clip-path-15);}.cls-17{clip-path:url(#clip-path-17);}.cls-18{clip-path:url(#clip-path-19);}.cls-19{clip-path:url(#clip-path-21);}.cls-20{clip-path:url(#clip-path-22);}.cls-21{clip-path:url(#clip-path-23);}.cls-22{fill:#9e2c2b;}.cls-23{clip-path:url(#clip-path-24);}.cls-24{clip-path:url(#clip-path-26);}.cls-25{clip-path:url(#clip-path-27);}.cls-26{fill:#952726;}.cls-27{clip-path:url(#clip-path-31);}.cls-28{clip-path:url(#clip-path-32);}.cls-29{fill:#912625;}.cls-30{clip-path:url(#clip-path-39);}.cls-31{clip-path:url(#clip-path-41);}.cls-32{clip-path:url(#clip-path-42);}.cls-33{clip-path:url(#clip-path-43);}.cls-34{clip-path:url(#clip-path-44);}.cls-35{clip-path:url(#clip-path-46);}.cls-36{clip-path:url(#clip-path-47);}.cls-37{fill:#c13d3c;}.cls-38{clip-path:url(#clip-path-51);}.cls-39{clip-path:url(#clip-path-52);}.cls-40{fill:#b73535;}.cls-41{clip-path:url(#clip-path-54);}.cls-42{clip-path:url(#clip-path-56);}.cls-43{clip-path:url(#clip-path-57);}.cls-44{clip-path:url(#clip-path-58);}.cls-45{fill:#f1665c;}.cls-46{clip-path:url(#clip-path-61);}.cls-47{clip-path:url(#clip-path-62);}.cls-48{fill:#ee4847;}</style><clipPath id="clip-path"><polygon class="cls-1" points="37.72 34.13 45.7 34.13 51.65 51.65 57.65 34.13 65.48 34.13 55.02 60.48 48.18 60.48 37.72 34.13"/></clipPath><clipPath id="clip-path-2"><rect class="cls-2" x="-1" y="-1" width="141" height="71"/></clipPath><clipPath id="clip-path-3"><rect class="cls-2" x="62.77" y="33.83" width="27.54" height="34.27"/></clipPath><clipPath id="clip-path-5"><rect class="cls-2" x="62" y="33" width="29" height="36"/></clipPath><clipPath id="clip-path-6"><path class="cls-1" d="M82.51,33.83h7.8L80.14,60.74c-2,5.34-4.19,7.35-8.69,7.35a12.48,12.48,0,0,1-6.66-1.81l2.52-5.39a6.85,6.85,0,0,0,3.21,1,2.51,2.51,0,0,0,2.62-1.72L62.77,33.83h7.95l6,17.9Z"/></clipPath><clipPath id="clip-path-8"><path class="cls-1" d="M91.79,33.83h7.5v5.3c1.53-3.63,4-6,8.44-5.79v7.8h-.39c-5,0-8,3-8,9.27v9.71h-7.5Z"/></clipPath><clipPath id="clip-path-10"><rect class="cls-2" x="-1" y="-0.84" width="140.06" height="68.94"/></clipPath><clipPath id="clip-path-12"><rect class="cls-2" x="109" y="24" width="31" height="37"/></clipPath><clipPath id="clip-path-13"><path class="cls-1" d="M109.6,30.93h7.9V24.32h-7.9Zm.2,29.17h7.5V33.83h-7.5Z"/></clipPath><clipPath id="clip-path-14"><rect class="cls-2" width="140" height="69"/></clipPath><clipPath id="clip-path-15"><rect class="cls-2" x="120.75" y="24.32" width="7.5" height="35.79"/></clipPath><clipPath id="clip-path-17"><rect class="cls-2" x="131.56" y="24.32" width="7.5" height="35.79"/></clipPath><clipPath id="clip-path-19"><path class="cls-1" d="M28.15,27S23.6,37.5,22.42,41.3a5.86,5.86,0,0,0,1.29.15c2.58,0,6-2,9.52-5.68a47.38,47.38,0,0,0,8.09-11.42A58.73,58.73,0,0,0,45.7,12.81c1.11-4.52.62-6.28.44-6.71l0,0,0,0a1.28,1.28,0,0,0-.22-.36C45.06,6.83,33.83,22.84,28.15,27"/></clipPath><clipPath id="clip-path-21"><rect class="cls-2" x="22" y="5" width="28" height="38"/></clipPath><clipPath id="clip-path-22"><path class="cls-1" d="M45.93,5.58c3.21,2-5.12,35.73-23.74,36.54.59-2.74,6-15.08,6-15.08,5.9-4.36,17.78-21.46,17.78-21.46"/></clipPath><clipPath id="clip-path-23"><rect class="cls-2" x="22" y="5" width="25" height="37"/></clipPath><clipPath id="clip-path-24"><path class="cls-1" d="M28.15,27S23.6,37.5,22.42,41.3a5.86,5.86,0,0,0,1.29.15c2.58,0,6-2,9.52-5.68a47.38,47.38,0,0,0,8.09-11.42A58.73,58.73,0,0,0,45.7,12.81c1.11-4.52.62-6.28.44-6.71l0,0,0,0a1.28,1.28,0,0,0-.22-.36C45.06,6.83,33.83,22.84,28.15,27Z"/></clipPath><clipPath id="clip-path-26"><rect class="cls-2" x="36" y="5" width="13" height="28"/></clipPath><clipPath id="clip-path-27"><path class="cls-1" d="M44.19,7c1,3.48-.84,15-7.7,25.2,9.38-11.06,11.74-24,10.45-27Z"/></clipPath><clipPath id="clip-path-31"><rect class="cls-2" x="22" y="30" width="16" height="13"/></clipPath><clipPath id="clip-path-32"><path class="cls-1" d="M26.54,38.66c4.13-.8,7.78-3.45,11.23-8.22C29.88,42.64,25.47,42,22.31,41.52Z"/></clipPath><clipPath id="clip-path-39"><path class="cls-1" d="M.95,5.77v0l0,0C.73,6.28.24,8,1.35,12.43a56.61,56.61,0,0,0,4.4,11.32A46.93,46.93,0,0,0,14,35.08c3.07,3.08,6,5,8.42,5.5h0c4.36.46,7.91-9.9,6.87-12.74,0,0-21.08-16.57-28.26-22.26a1,1,0,0,0-.09.18"/></clipPath><clipPath id="clip-path-41"><rect class="cls-2" x="-2" y="3" width="19" height="36"/></clipPath><clipPath id="clip-path-42"><path class="cls-1" d="M-1.17,3.2c-.5,3.31,4.48,22.93,10.95,29.31s1-19.38.75-19.75S-1.17,3.2-1.17,3.2"/></clipPath><clipPath id="clip-path-43"><rect class="cls-2" y="5" width="31" height="37"/></clipPath><clipPath id="clip-path-44"><path class="cls-1" d="M.95,5.77v0l0,0C.73,6.28.24,8,1.35,12.43a56.61,56.61,0,0,0,4.4,11.32A46.93,46.93,0,0,0,14,35.08c3.07,3.08,6,5,8.42,5.5h0c4.36.46,7.91-9.9,6.87-12.74,0,0-21.08-16.57-28.26-22.26A1,1,0,0,0,.95,5.77Z"/></clipPath><clipPath id="clip-path-46"><rect class="cls-2" x="1" y="6" width="32" height="38"/></clipPath><clipPath id="clip-path-47"><path class="cls-1" d="M2.6,6.4c-1,5,2.15,26.92,20,35.92,1.89,1,9.45-6.5,8.83-11.16s-1.34-5.53-1.34-5.53Z"/></clipPath><clipPath id="clip-path-51"><rect class="cls-2" x="5" y="23" width="26" height="19"/></clipPath><clipPath id="clip-path-52"><path class="cls-1" d="M5,23.08C8.35,27.78,17,38.87,26.93,37.92c3.92,2.46-3.46,3.76-4.89,3.45s-11.3-5.7-17-18.3"/></clipPath><clipPath id="clip-path-54"><path class="cls-1" d="M7.33,2.29C2.6,3.54.94,5,.71,5.69v0l0,0-.05.15c3,5,15.06,19.56,28.1,22.35,6.62-2.43,16-17.37,16.86-22.64-.31-.7-2-2.12-6.6-3.34A64.46,64.46,0,0,0,23.15.52,64.46,64.46,0,0,0,7.33,2.29"/></clipPath><clipPath id="clip-path-56"><rect class="cls-2" x="-2" y="-3" width="52" height="32"/></clipPath><clipPath id="clip-path-57"><path class="cls-1" d="M-1.29,4.55C-1-2.25,42-2.1,45.78,3.95s-23.49,25-23.49,25S-1.55,11.37-1.29,4.55"/></clipPath><clipPath id="clip-path-58"><rect class="cls-2" width="46" height="29"/></clipPath><clipPath id="clip-path-61"><rect class="cls-2" x="1" y="-2" width="49" height="35"/></clipPath><clipPath id="clip-path-62"><path class="cls-1" d="M29.35,31.52C33,30.47,49.33,7.16,46,5.1,39.93-1.61,6.3.55,1.8,8.88c3,5.7,23.94,23.69,27.55,22.64"/></clipPath></defs><title>Artboard 1</title><g class="cls-4"><g class="cls-5"><rect class="cls-6" x="32.72" y="29.13" width="37.76" height="36.35"/></g></g><g class="cls-7"><g class="cls-5"><g class="cls-8"><g class="cls-9"><g class="cls-10"><g class="cls-9"><rect class="cls-6" x="57.77" y="28.83" width="37.54" height="44.27"/></g></g></g></g></g></g><g class="cls-11"><g class="cls-5"><rect class="cls-6" x="86.79" y="28.33" width="25.94" height="36.78"/></g></g><g class="cls-12"><g class="cls-5"><g class="cls-8"><g class="cls-13"><g class="cls-14"><g class="cls-15"><rect class="cls-6" x="104.6" y="19.32" width="17.9" height="45.79"/></g></g><g class="cls-16"><g class="cls-15"><rect class="cls-6" x="115.75" y="19.32" width="17.5" height="45.79"/></g></g><g class="cls-17"><g class="cls-15"><rect class="cls-6" x="126.56" y="19.32" width="17.5" height="45.79"/></g></g></g></g></g></g><g class="cls-18"><g class="cls-5"><g class="cls-8"><g class="cls-19"><g class="cls-20"><g class="cls-21"><rect class="cls-22" x="17.19" y="0.58" width="34.41" height="46.54"/></g></g></g></g></g></g><g class="cls-23"><g class="cls-5"><g class="cls-8"><g class="cls-24"><g class="cls-25"><g class="cls-21"><rect class="cls-26" x="31.5" y="0.23" width="20.78" height="36.97"/></g></g></g></g></g></g><g class="cls-23"><g class="cls-5"><g class="cls-8"><g class="cls-27"><g class="cls-28"><g class="cls-21"><rect class="cls-29" x="17.31" y="25.44" width="25.46" height="21.27"/></g></g></g></g></g></g><g class="cls-23"><g class="cls-5"><g class="cls-8"><g class="cls-24"><g class="cls-25"><g class="cls-21"><rect class="cls-29" x="31.5" y="0.23" width="20.78" height="36.97"/></g></g></g></g></g></g><g class="cls-30"><g class="cls-5"><g class="cls-8"><g class="cls-31"><g class="cls-32"><g class="cls-33"><rect class="cls-22" x="-6.2" y="-1.8" width="24.13" height="40.33"/></g></g></g></g></g></g><g class="cls-34"><g class="cls-5"><g class="cls-8"><g class="cls-35"><g class="cls-36"><g class="cls-33"><rect class="cls-37" x="-2.55" y="1.4" width="39.02" height="46"/></g></g></g></g></g></g><g class="cls-30"><g class="cls-5"><g class="cls-8"><g class="cls-38"><g class="cls-39"><g class="cls-33"><rect class="cls-40" x="0.01" y="18.08" width="33.05" height="28.34"/></g></g></g></g></g></g><g class="cls-41"><g class="cls-5"><g class="cls-8"><g class="cls-42"><g class="cls-43"><g class="cls-44"><rect class="cls-45" x="-6.3" y="-5.57" width="57.44" height="39.47"/></g></g></g></g></g></g><g class="cls-41"><g class="cls-5"><g class="cls-8"><g class="cls-46"><g class="cls-47"><g class="cls-44"><rect class="cls-48" x="-3.2" y="-3.87" width="54.67" height="40.44"/></g></g></g></g></g></g></svg>